<mxfile host="app.diagrams.net" modified="2024-04-29T03:24:53.845Z" agent="Mozilla/5.0 (Windows NT 10.0; Win64; x64) AppleWebKit/537.36 (KHTML, like Gecko) Chrome/122.0.0.0 Safari/537.36 OPR/108.0.0.0" etag="0JvrAEvC7jPIhAprfNgx" version="24.3.1" type="github">
  <diagram id="C5RBs43oDa-KdzZeNtuy" name="Page-1">
    <mxGraphModel dx="1101" dy="572" grid="1" gridSize="10" guides="1" tooltips="1" connect="1" arrows="1" fold="1" page="1" pageScale="1" pageWidth="827" pageHeight="1169" math="0" shadow="0">
      <root>
        <mxCell id="WIyWlLk6GJQsqaUBKTNV-0" />
        <mxCell id="WIyWlLk6GJQsqaUBKTNV-1" parent="WIyWlLk6GJQsqaUBKTNV-0" />
        <mxCell id="4bZekmsNZAQklOtr8z3F-14" value="" style="edgeStyle=orthogonalEdgeStyle;rounded=0;orthogonalLoop=1;jettySize=auto;html=1;" edge="1" parent="WIyWlLk6GJQsqaUBKTNV-1" source="WIyWlLk6GJQsqaUBKTNV-10" target="4bZekmsNZAQklOtr8z3F-12">
          <mxGeometry relative="1" as="geometry" />
        </mxCell>
        <mxCell id="4bZekmsNZAQklOtr8z3F-16" style="edgeStyle=orthogonalEdgeStyle;rounded=0;orthogonalLoop=1;jettySize=auto;html=1;entryX=0;entryY=0.5;entryDx=0;entryDy=0;" edge="1" parent="WIyWlLk6GJQsqaUBKTNV-1" source="WIyWlLk6GJQsqaUBKTNV-10" target="WIyWlLk6GJQsqaUBKTNV-12">
          <mxGeometry relative="1" as="geometry" />
        </mxCell>
        <mxCell id="WIyWlLk6GJQsqaUBKTNV-10" value="n&amp;gt;a &amp;amp;&amp;amp; n&amp;lt;b" style="rhombus;whiteSpace=wrap;html=1;shadow=0;fontFamily=Helvetica;fontSize=12;align=center;strokeWidth=1;spacing=6;spacingTop=-4;fillColor=#e1d5e7;strokeColor=#9673a6;" parent="WIyWlLk6GJQsqaUBKTNV-1" vertex="1">
          <mxGeometry x="170" y="320" width="100" height="80" as="geometry" />
        </mxCell>
        <mxCell id="4bZekmsNZAQklOtr8z3F-10" value="" style="edgeStyle=orthogonalEdgeStyle;rounded=0;orthogonalLoop=1;jettySize=auto;html=1;" edge="1" parent="WIyWlLk6GJQsqaUBKTNV-1" source="WIyWlLk6GJQsqaUBKTNV-12">
          <mxGeometry relative="1" as="geometry">
            <mxPoint x="610" y="360" as="targetPoint" />
          </mxGeometry>
        </mxCell>
        <mxCell id="WIyWlLk6GJQsqaUBKTNV-12" value="desc=n*x/100&lt;div&gt;cost_total=n-desc&lt;/div&gt;" style="rounded=1;whiteSpace=wrap;html=1;fontSize=12;glass=0;strokeWidth=1;shadow=0;fillColor=#f8cecc;strokeColor=#b85450;" parent="WIyWlLk6GJQsqaUBKTNV-1" vertex="1">
          <mxGeometry x="400" y="340" width="120" height="40" as="geometry" />
        </mxCell>
        <mxCell id="4bZekmsNZAQklOtr8z3F-5" value="" style="edgeStyle=orthogonalEdgeStyle;rounded=0;orthogonalLoop=1;jettySize=auto;html=1;" edge="1" parent="WIyWlLk6GJQsqaUBKTNV-1" source="4bZekmsNZAQklOtr8z3F-0">
          <mxGeometry relative="1" as="geometry">
            <mxPoint x="240" y="190" as="targetPoint" />
          </mxGeometry>
        </mxCell>
        <mxCell id="4bZekmsNZAQklOtr8z3F-0" value="double n&lt;div&gt;double a&lt;/div&gt;&lt;div&gt;double b&lt;/div&gt;&lt;div&gt;double x&lt;/div&gt;&lt;div&gt;double y&lt;/div&gt;" style="shape=parallelogram;perimeter=parallelogramPerimeter;whiteSpace=wrap;html=1;fixedSize=1;fillColor=#d5e8d4;strokeColor=#82b366;" vertex="1" parent="WIyWlLk6GJQsqaUBKTNV-1">
          <mxGeometry x="170" y="60" width="140" height="80" as="geometry" />
        </mxCell>
        <mxCell id="4bZekmsNZAQklOtr8z3F-3" style="edgeStyle=orthogonalEdgeStyle;rounded=0;orthogonalLoop=1;jettySize=auto;html=1;entryX=1;entryY=0.5;entryDx=0;entryDy=0;" edge="1" parent="WIyWlLk6GJQsqaUBKTNV-1" source="4bZekmsNZAQklOtr8z3F-1" target="4bZekmsNZAQklOtr8z3F-0">
          <mxGeometry relative="1" as="geometry" />
        </mxCell>
        <mxCell id="4bZekmsNZAQklOtr8z3F-1" value="Inicio" style="ellipse;whiteSpace=wrap;html=1;" vertex="1" parent="WIyWlLk6GJQsqaUBKTNV-1">
          <mxGeometry x="400" y="50" width="120" height="80" as="geometry" />
        </mxCell>
        <mxCell id="4bZekmsNZAQklOtr8z3F-15" value="" style="edgeStyle=orthogonalEdgeStyle;rounded=0;orthogonalLoop=1;jettySize=auto;html=1;" edge="1" parent="WIyWlLk6GJQsqaUBKTNV-1" source="4bZekmsNZAQklOtr8z3F-7" target="WIyWlLk6GJQsqaUBKTNV-10">
          <mxGeometry relative="1" as="geometry" />
        </mxCell>
        <mxCell id="4bZekmsNZAQklOtr8z3F-21" value="Si" style="edgeLabel;html=1;align=center;verticalAlign=middle;resizable=0;points=[];" vertex="1" connectable="0" parent="4bZekmsNZAQklOtr8z3F-15">
          <mxGeometry x="-0.3333" y="9" relative="1" as="geometry">
            <mxPoint as="offset" />
          </mxGeometry>
        </mxCell>
        <mxCell id="4bZekmsNZAQklOtr8z3F-7" value="double desc&lt;div&gt;double cost_total&lt;/div&gt;&lt;div&gt;double cost_normal&lt;/div&gt;&lt;div&gt;double desc_especial&lt;/div&gt;" style="rounded=1;whiteSpace=wrap;html=1;fillColor=#f8cecc;strokeColor=#b85450;" vertex="1" parent="WIyWlLk6GJQsqaUBKTNV-1">
          <mxGeometry x="170" y="190" width="130" height="70" as="geometry" />
        </mxCell>
        <mxCell id="4bZekmsNZAQklOtr8z3F-38" style="edgeStyle=orthogonalEdgeStyle;rounded=0;orthogonalLoop=1;jettySize=auto;html=1;" edge="1" parent="WIyWlLk6GJQsqaUBKTNV-1" source="4bZekmsNZAQklOtr8z3F-11" target="4bZekmsNZAQklOtr8z3F-34">
          <mxGeometry relative="1" as="geometry" />
        </mxCell>
        <mxCell id="4bZekmsNZAQklOtr8z3F-11" value="cost total" style="shape=parallelogram;perimeter=parallelogramPerimeter;whiteSpace=wrap;html=1;fixedSize=1;fillColor=#d5e8d4;strokeColor=#82b366;" vertex="1" parent="WIyWlLk6GJQsqaUBKTNV-1">
          <mxGeometry x="600" y="330" width="120" height="60" as="geometry" />
        </mxCell>
        <mxCell id="4bZekmsNZAQklOtr8z3F-18" value="" style="edgeStyle=orthogonalEdgeStyle;rounded=0;orthogonalLoop=1;jettySize=auto;html=1;" edge="1" parent="WIyWlLk6GJQsqaUBKTNV-1" source="4bZekmsNZAQklOtr8z3F-12" target="4bZekmsNZAQklOtr8z3F-17">
          <mxGeometry relative="1" as="geometry" />
        </mxCell>
        <mxCell id="4bZekmsNZAQklOtr8z3F-28" value="" style="edgeStyle=orthogonalEdgeStyle;rounded=0;orthogonalLoop=1;jettySize=auto;html=1;" edge="1" parent="WIyWlLk6GJQsqaUBKTNV-1" source="4bZekmsNZAQklOtr8z3F-12" target="4bZekmsNZAQklOtr8z3F-27">
          <mxGeometry relative="1" as="geometry" />
        </mxCell>
        <mxCell id="4bZekmsNZAQklOtr8z3F-12" value="n&amp;gt;b &amp;amp;&amp;amp; n&amp;gt;a" style="rhombus;whiteSpace=wrap;html=1;fillColor=#e1d5e7;strokeColor=#9673a6;" vertex="1" parent="WIyWlLk6GJQsqaUBKTNV-1">
          <mxGeometry x="175" y="460" width="90" height="90" as="geometry" />
        </mxCell>
        <mxCell id="4bZekmsNZAQklOtr8z3F-20" value="" style="edgeStyle=orthogonalEdgeStyle;rounded=0;orthogonalLoop=1;jettySize=auto;html=1;" edge="1" parent="WIyWlLk6GJQsqaUBKTNV-1" source="4bZekmsNZAQklOtr8z3F-17" target="4bZekmsNZAQklOtr8z3F-19">
          <mxGeometry relative="1" as="geometry" />
        </mxCell>
        <mxCell id="4bZekmsNZAQklOtr8z3F-17" value="desc=n*y/100&lt;div&gt;cost_total=n-desc&lt;/div&gt;" style="rounded=1;whiteSpace=wrap;html=1;fillColor=#f8cecc;strokeColor=#b85450;" vertex="1" parent="WIyWlLk6GJQsqaUBKTNV-1">
          <mxGeometry x="354" y="475" width="120" height="60" as="geometry" />
        </mxCell>
        <mxCell id="4bZekmsNZAQklOtr8z3F-19" value="cost total" style="shape=parallelogram;perimeter=parallelogramPerimeter;whiteSpace=wrap;html=1;fixedSize=1;fillColor=#d5e8d4;strokeColor=#82b366;" vertex="1" parent="WIyWlLk6GJQsqaUBKTNV-1">
          <mxGeometry x="530" y="475" width="120" height="60" as="geometry" />
        </mxCell>
        <mxCell id="4bZekmsNZAQklOtr8z3F-22" value="Entonces" style="text;html=1;align=center;verticalAlign=middle;resizable=0;points=[];autosize=1;strokeColor=none;fillColor=none;" vertex="1" parent="WIyWlLk6GJQsqaUBKTNV-1">
          <mxGeometry x="295" y="338" width="70" height="30" as="geometry" />
        </mxCell>
        <mxCell id="4bZekmsNZAQklOtr8z3F-23" value="Salida" style="text;html=1;align=center;verticalAlign=middle;resizable=0;points=[];autosize=1;strokeColor=none;fillColor=none;" vertex="1" parent="WIyWlLk6GJQsqaUBKTNV-1">
          <mxGeometry x="530" y="328" width="60" height="30" as="geometry" />
        </mxCell>
        <mxCell id="4bZekmsNZAQklOtr8z3F-24" value="Entonces" style="text;html=1;align=center;verticalAlign=middle;resizable=0;points=[];autosize=1;strokeColor=none;fillColor=none;" vertex="1" parent="WIyWlLk6GJQsqaUBKTNV-1">
          <mxGeometry x="255" y="478" width="70" height="30" as="geometry" />
        </mxCell>
        <mxCell id="4bZekmsNZAQklOtr8z3F-25" value="Salida" style="text;html=1;align=center;verticalAlign=middle;resizable=0;points=[];autosize=1;strokeColor=none;fillColor=none;" vertex="1" parent="WIyWlLk6GJQsqaUBKTNV-1">
          <mxGeometry x="470" y="478" width="60" height="30" as="geometry" />
        </mxCell>
        <mxCell id="4bZekmsNZAQklOtr8z3F-26" value="Si no" style="text;html=1;align=center;verticalAlign=middle;resizable=0;points=[];autosize=1;strokeColor=none;fillColor=none;" vertex="1" parent="WIyWlLk6GJQsqaUBKTNV-1">
          <mxGeometry x="215" y="408" width="50" height="30" as="geometry" />
        </mxCell>
        <mxCell id="4bZekmsNZAQklOtr8z3F-33" value="" style="edgeStyle=orthogonalEdgeStyle;rounded=0;orthogonalLoop=1;jettySize=auto;html=1;" edge="1" parent="WIyWlLk6GJQsqaUBKTNV-1" source="4bZekmsNZAQklOtr8z3F-27" target="4bZekmsNZAQklOtr8z3F-32">
          <mxGeometry relative="1" as="geometry" />
        </mxCell>
        <mxCell id="4bZekmsNZAQklOtr8z3F-27" value="n&amp;lt;a &amp;amp;&amp;amp; n&amp;lt;b" style="rhombus;whiteSpace=wrap;html=1;fillColor=#e1d5e7;strokeColor=#9673a6;" vertex="1" parent="WIyWlLk6GJQsqaUBKTNV-1">
          <mxGeometry x="175" y="630" width="90" height="90" as="geometry" />
        </mxCell>
        <mxCell id="4bZekmsNZAQklOtr8z3F-29" value="Si no" style="text;html=1;align=center;verticalAlign=middle;resizable=0;points=[];autosize=1;strokeColor=none;fillColor=none;" vertex="1" parent="WIyWlLk6GJQsqaUBKTNV-1">
          <mxGeometry x="215" y="570" width="50" height="30" as="geometry" />
        </mxCell>
        <mxCell id="4bZekmsNZAQklOtr8z3F-32" value="n" style="shape=parallelogram;perimeter=parallelogramPerimeter;whiteSpace=wrap;html=1;fixedSize=1;fillColor=#d5e8d4;strokeColor=#82b366;" vertex="1" parent="WIyWlLk6GJQsqaUBKTNV-1">
          <mxGeometry x="330" y="645" width="120" height="60" as="geometry" />
        </mxCell>
        <mxCell id="4bZekmsNZAQklOtr8z3F-34" value="Fin" style="ellipse;whiteSpace=wrap;html=1;" vertex="1" parent="WIyWlLk6GJQsqaUBKTNV-1">
          <mxGeometry x="630" y="630" width="120" height="80" as="geometry" />
        </mxCell>
        <mxCell id="4bZekmsNZAQklOtr8z3F-35" style="edgeStyle=orthogonalEdgeStyle;rounded=0;orthogonalLoop=1;jettySize=auto;html=1;entryX=-0.017;entryY=0.588;entryDx=0;entryDy=0;entryPerimeter=0;" edge="1" parent="WIyWlLk6GJQsqaUBKTNV-1" source="4bZekmsNZAQklOtr8z3F-32" target="4bZekmsNZAQklOtr8z3F-34">
          <mxGeometry relative="1" as="geometry" />
        </mxCell>
        <mxCell id="4bZekmsNZAQklOtr8z3F-37" style="edgeStyle=orthogonalEdgeStyle;rounded=0;orthogonalLoop=1;jettySize=auto;html=1;entryX=0.15;entryY=0.075;entryDx=0;entryDy=0;entryPerimeter=0;" edge="1" parent="WIyWlLk6GJQsqaUBKTNV-1" source="4bZekmsNZAQklOtr8z3F-19" target="4bZekmsNZAQklOtr8z3F-34">
          <mxGeometry relative="1" as="geometry" />
        </mxCell>
      </root>
    </mxGraphModel>
  </diagram>
</mxfile>
